<svg width="1738" height="597" viewBox="0 0 1738 597" fill="none" xmlns="http://www.w3.org/2000/svg">
<g opacity="0.6">
<path d="M1724.3 512.921L1724.3 501L1756 501L1756 532.699L1744.17 532.699L1744.17 512.921L1724.3 512.921Z" fill="white"/>
<path d="M1702.9 534.326L1702.9 522.495L1734.6 522.495L1734.6 554.104L1722.68 554.104L1722.68 534.326L1702.9 534.326Z" fill="white"/>
<path d="M1681.49 555.818L1681.49 543.897L1713.1 543.897L1713.1 575.596L1701.27 575.596L1701.27 555.818L1681.49 555.818Z" fill="white"/>
<path d="M1660 577.222L1660 565.301L1691.7 565.301L1691.7 597L1679.78 597L1679.78 577.222L1660 577.222Z" fill="white"/>
</g>
<g clip-path="url(#clip0_2503_457)">
<path d="M1074.08 30.8602C1074.08 32.0247 1073.21 32.8981 1072.04 32.8981C1070.87 32.8981 1070 32.0247 1070 30.8602C1070 29.6956 1070.87 28.8223 1072.04 28.8223C1073.21 28.8223 1074.08 29.7927 1074.08 30.8602Z" fill="white"/>
<path d="M1091.47 30.8602C1091.47 32.0247 1090.6 32.8981 1089.43 32.8981C1088.26 32.8981 1087.39 32.0247 1087.39 30.8602C1087.39 29.6956 1088.26 28.8223 1089.43 28.8223C1090.5 28.8223 1091.47 29.7927 1091.47 30.8602Z" fill="white"/>
<path d="M1108.76 30.8602C1108.76 32.0247 1107.89 32.8981 1106.72 32.8981C1105.56 32.8981 1104.68 32.0247 1104.68 30.8602C1104.68 29.6956 1105.56 28.8223 1106.72 28.8223C1107.89 28.8223 1108.76 29.7927 1108.76 30.8602Z" fill="white"/>
<path d="M1126.15 30.8602C1126.15 32.0247 1125.28 32.8981 1124.11 32.8981C1122.95 32.8981 1122.07 32.0247 1122.07 30.8602C1122.07 29.6956 1122.95 28.8223 1124.11 28.8223C1125.28 28.8223 1126.15 29.7927 1126.15 30.8602Z" fill="white"/>
<path d="M1143.54 30.8602C1143.54 32.0247 1142.67 32.8981 1141.5 32.8981C1140.33 32.8981 1139.46 32.0247 1139.46 30.8602C1139.46 29.6956 1140.33 28.8223 1141.5 28.8223C1142.57 28.8223 1143.54 29.7927 1143.54 30.8602Z" fill="white"/>
<path d="M1160.93 30.8602C1160.93 32.0247 1160.05 32.8981 1158.89 32.8981C1157.72 32.8981 1156.85 32.0247 1156.85 30.8602C1156.85 29.6956 1157.72 28.8223 1158.89 28.8223C1160.05 28.8223 1160.93 29.7927 1160.93 30.8602Z" fill="white"/>
<path d="M1178.22 30.8602C1178.22 32.0247 1177.35 32.8981 1176.18 32.8981C1175.02 32.8981 1174.14 32.0247 1174.14 30.8602C1174.14 29.6956 1175.02 28.8223 1176.18 28.8223C1177.35 28.8223 1178.22 29.7927 1178.22 30.8602Z" fill="white"/>
<path d="M1195.61 30.8602C1195.61 32.0247 1194.74 32.8981 1193.57 32.8981C1192.41 32.8981 1191.53 32.0247 1191.53 30.8602C1191.53 29.6956 1192.41 28.8223 1193.57 28.8223C1194.74 28.8223 1195.61 29.7927 1195.61 30.8602Z" fill="white"/>
<path d="M1213 30.8602C1213 32.0247 1212.13 32.8981 1210.96 32.8981C1209.79 32.8981 1208.92 32.0247 1208.92 30.8602C1208.92 29.6956 1209.79 28.8223 1210.96 28.8223C1212.03 28.8223 1213 29.7927 1213 30.8602Z" fill="white"/>
<path d="M1074.08 45.3191C1074.08 46.4837 1073.21 47.357 1072.04 47.357C1070.87 47.357 1070 46.4837 1070 45.3191C1070 44.1546 1070.87 43.2812 1072.04 43.2812C1073.21 43.2812 1074.08 44.1546 1074.08 45.3191Z" fill="white"/>
<path d="M1091.47 45.3191C1091.47 46.4837 1090.6 47.357 1089.43 47.357C1088.26 47.357 1087.39 46.4837 1087.39 45.3191C1087.39 44.1546 1088.26 43.2812 1089.43 43.2812C1090.5 43.2812 1091.47 44.1546 1091.47 45.3191Z" fill="white"/>
<path d="M1108.76 45.3191C1108.76 46.4837 1107.89 47.357 1106.72 47.357C1105.56 47.357 1104.68 46.4837 1104.68 45.3191C1104.68 44.1546 1105.56 43.2812 1106.72 43.2812C1107.89 43.2812 1108.76 44.1546 1108.76 45.3191Z" fill="white"/>
<path d="M1126.15 45.3191C1126.15 46.4837 1125.28 47.357 1124.11 47.357C1122.95 47.357 1122.07 46.4837 1122.07 45.3191C1122.07 44.1546 1122.95 43.2812 1124.11 43.2812C1125.28 43.2812 1126.15 44.1546 1126.15 45.3191Z" fill="white"/>
<path d="M1143.54 45.3191C1143.54 46.4837 1142.67 47.357 1141.5 47.357C1140.33 47.357 1139.46 46.4837 1139.46 45.3191C1139.46 44.1546 1140.33 43.2812 1141.5 43.2812C1142.57 43.2812 1143.54 44.1546 1143.54 45.3191Z" fill="white"/>
<path d="M1160.93 45.3191C1160.93 46.4837 1160.05 47.357 1158.89 47.357C1157.72 47.357 1156.85 46.4837 1156.85 45.3191C1156.85 44.1546 1157.72 43.2812 1158.89 43.2812C1160.05 43.2812 1160.93 44.1546 1160.93 45.3191Z" fill="white"/>
<path d="M1178.22 45.3191C1178.22 46.4837 1177.35 47.357 1176.18 47.357C1175.02 47.357 1174.14 46.4837 1174.14 45.3191C1174.14 44.1546 1175.02 43.2812 1176.18 43.2812C1177.35 43.2812 1178.22 44.1546 1178.22 45.3191Z" fill="white"/>
<path d="M1195.61 45.3191C1195.61 46.4837 1194.74 47.357 1193.57 47.357C1192.41 47.357 1191.53 46.4837 1191.53 45.3191C1191.53 44.1546 1192.41 43.2812 1193.57 43.2812C1194.74 43.2812 1195.61 44.1546 1195.61 45.3191Z" fill="white"/>
<path d="M1213 45.3191C1213 46.4837 1212.13 47.357 1210.96 47.357C1209.79 47.357 1208.92 46.4837 1208.92 45.3191C1208.92 44.1546 1209.79 43.2812 1210.96 43.2812C1212.03 43.2812 1213 44.1546 1213 45.3191Z" fill="white"/>
<path d="M1074.08 2.03789C1074.08 3.2024 1073.21 4.07579 1072.04 4.07579C1070.87 4.07579 1070 3.2024 1070 2.03789C1070 0.873382 1070.87 0 1072.04 0C1073.21 0 1074.08 0.873382 1074.08 2.03789Z" fill="white"/>
<path d="M1091.47 2.03789C1091.47 3.2024 1090.6 4.07579 1089.43 4.07579C1088.26 4.07579 1087.39 3.2024 1087.39 2.03789C1087.39 0.873382 1088.26 0 1089.43 0C1090.5 0 1091.47 0.873382 1091.47 2.03789Z" fill="white"/>
<path d="M1108.76 2.03789C1108.76 3.2024 1107.89 4.07579 1106.72 4.07579C1105.56 4.07579 1104.68 3.2024 1104.68 2.03789C1104.68 0.873382 1105.65 0 1106.72 0C1107.89 0 1108.76 0.873382 1108.76 2.03789Z" fill="white"/>
<path d="M1126.15 2.03789C1126.15 3.2024 1125.28 4.07579 1124.11 4.07579C1122.95 4.07579 1122.07 3.2024 1122.07 2.03789C1122.07 0.873382 1123.04 0 1124.11 0C1125.18 0 1126.15 0.873382 1126.15 2.03789Z" fill="white"/>
<path d="M1143.54 2.03789C1143.54 3.2024 1142.67 4.07579 1141.5 4.07579C1140.33 4.07579 1139.46 3.2024 1139.46 2.03789C1139.46 0.873382 1140.33 0 1141.5 0C1142.57 0 1143.54 0.873382 1143.54 2.03789Z" fill="white"/>
<path d="M1160.93 2.03789C1160.93 3.2024 1160.05 4.07579 1158.89 4.07579C1157.72 4.07579 1156.85 3.2024 1156.85 2.03789C1156.85 0.873382 1157.72 0 1158.89 0C1160.05 0 1160.93 0.873382 1160.93 2.03789Z" fill="white"/>
<path d="M1178.22 2.03789C1178.22 3.2024 1177.35 4.07579 1176.18 4.07579C1175.02 4.07579 1174.14 3.2024 1174.14 2.03789C1174.14 0.873382 1175.02 0 1176.18 0C1177.35 0 1178.22 0.873382 1178.22 2.03789Z" fill="white"/>
<path d="M1195.61 2.03789C1195.61 3.2024 1194.74 4.07579 1193.57 4.07579C1192.41 4.07579 1191.53 3.2024 1191.53 2.03789C1191.53 0.873382 1192.41 0 1193.57 0C1194.74 0 1195.61 0.873382 1195.61 2.03789Z" fill="white"/>
<path d="M1213 2.03789C1213 3.2024 1212.13 4.07579 1210.96 4.07579C1209.79 4.07579 1208.92 3.2024 1208.92 2.03789C1208.92 0.873382 1209.79 0 1210.96 0C1212.03 0 1213 0.873382 1213 2.03789Z" fill="white"/>
<path d="M1074.08 16.4969C1074.08 17.6614 1073.21 18.5348 1072.04 18.5348C1070.87 18.5348 1070 17.5643 1070 16.4969C1070 15.3324 1070.87 14.459 1072.04 14.459C1073.21 14.459 1074.08 15.3324 1074.08 16.4969Z" fill="white"/>
<path d="M1091.47 16.4969C1091.47 17.6614 1090.6 18.5348 1089.43 18.5348C1088.26 18.5348 1087.39 17.6614 1087.39 16.4969C1087.39 15.3324 1088.26 14.459 1089.43 14.459C1090.5 14.459 1091.47 15.3324 1091.47 16.4969Z" fill="white"/>
<path d="M1108.76 16.4969C1108.76 17.6614 1107.89 18.5348 1106.72 18.5348C1105.56 18.5348 1104.68 17.6614 1104.68 16.4969C1104.68 15.3324 1105.56 14.459 1106.72 14.459C1107.89 14.459 1108.76 15.3324 1108.76 16.4969Z" fill="white"/>
<path d="M1126.15 16.4969C1126.15 17.6614 1125.28 18.5348 1124.11 18.5348C1122.95 18.5348 1122.07 17.6614 1122.07 16.4969C1122.07 15.3324 1122.95 14.459 1124.11 14.459C1125.28 14.459 1126.15 15.3324 1126.15 16.4969Z" fill="white"/>
<path d="M1143.54 16.4969C1143.54 17.6614 1142.67 18.5348 1141.5 18.5348C1140.33 18.5348 1139.46 17.6614 1139.46 16.4969C1139.46 15.3324 1140.33 14.459 1141.5 14.459C1142.57 14.459 1143.54 15.3324 1143.54 16.4969Z" fill="white"/>
<path d="M1160.93 16.4969C1160.93 17.6614 1160.05 18.5348 1158.89 18.5348C1157.72 18.5348 1156.85 17.6614 1156.85 16.4969C1156.85 15.3324 1157.72 14.459 1158.89 14.459C1160.05 14.459 1160.93 15.3324 1160.93 16.4969Z" fill="white"/>
<path d="M1178.22 16.4969C1178.22 17.6614 1177.35 18.5348 1176.18 18.5348C1175.02 18.5348 1174.14 17.6614 1174.14 16.4969C1174.14 15.3324 1175.02 14.459 1176.18 14.459C1177.35 14.459 1178.22 15.3324 1178.22 16.4969Z" fill="white"/>
<path d="M1195.61 16.4969C1195.61 17.6614 1194.74 18.5348 1193.57 18.5348C1192.41 18.5348 1191.53 17.6614 1191.53 16.4969C1191.53 15.3324 1192.41 14.459 1193.57 14.459C1194.74 14.459 1195.61 15.3324 1195.61 16.4969Z" fill="white"/>
<path d="M1213 16.4969C1213 17.6614 1212.13 18.5348 1210.96 18.5348C1209.79 18.5348 1208.92 17.6614 1208.92 16.4969C1208.92 15.3324 1209.79 14.459 1210.96 14.459C1212.03 14.459 1213 15.3324 1213 16.4969Z" fill="white"/>
<path d="M1074.08 59.6805C1074.08 60.845 1073.21 61.7184 1072.04 61.7184C1070.87 61.7184 1070 60.845 1070 59.6805C1070 58.516 1070.87 57.6426 1072.04 57.6426C1073.21 57.6426 1074.08 58.613 1074.08 59.6805Z" fill="white"/>
<path d="M1091.47 59.6805C1091.47 60.845 1090.6 61.7184 1089.43 61.7184C1088.26 61.7184 1087.39 60.845 1087.39 59.6805C1087.39 58.516 1088.26 57.6426 1089.43 57.6426C1090.5 57.6426 1091.47 58.613 1091.47 59.6805Z" fill="white"/>
<path d="M1108.76 59.6805C1108.76 60.845 1107.89 61.7184 1106.72 61.7184C1105.56 61.7184 1104.68 60.845 1104.68 59.6805C1104.68 58.516 1105.56 57.6426 1106.72 57.6426C1107.89 57.6426 1108.76 58.613 1108.76 59.6805Z" fill="white"/>
<path d="M1126.15 59.6805C1126.15 60.845 1125.28 61.7184 1124.11 61.7184C1122.95 61.7184 1122.07 60.845 1122.07 59.6805C1122.07 58.516 1122.95 57.6426 1124.11 57.6426C1125.28 57.6426 1126.15 58.613 1126.15 59.6805Z" fill="white"/>
<path d="M1143.54 59.6805C1143.54 60.845 1142.67 61.7184 1141.5 61.7184C1140.33 61.7184 1139.46 60.845 1139.46 59.6805C1139.46 58.516 1140.33 57.6426 1141.5 57.6426C1142.57 57.6426 1143.54 58.613 1143.54 59.6805Z" fill="white"/>
<path d="M1160.93 59.6805C1160.93 60.845 1160.05 61.7184 1158.89 61.7184C1157.72 61.7184 1156.85 60.845 1156.85 59.6805C1156.85 58.516 1157.72 57.6426 1158.89 57.6426C1160.05 57.6426 1160.93 58.613 1160.93 59.6805Z" fill="white"/>
<path d="M1178.22 59.6805C1178.22 60.845 1177.35 61.7184 1176.18 61.7184C1175.02 61.7184 1174.14 60.845 1174.14 59.6805C1174.14 58.516 1175.02 57.6426 1176.18 57.6426C1177.35 57.6426 1178.22 58.613 1178.22 59.6805Z" fill="white"/>
<path d="M1195.61 59.6805C1195.61 60.845 1194.74 61.7184 1193.57 61.7184C1192.41 61.7184 1191.53 60.845 1191.53 59.6805C1191.53 58.516 1192.41 57.6426 1193.57 57.6426C1194.74 57.6426 1195.61 58.613 1195.61 59.6805Z" fill="white"/>
<path d="M1213 59.6805C1213 60.845 1212.13 61.7184 1210.96 61.7184C1209.79 61.7184 1208.92 60.845 1208.92 59.6805C1208.92 58.516 1209.79 57.6426 1210.96 57.6426C1212.03 57.6426 1213 58.613 1213 59.6805Z" fill="white"/>
<path d="M1074.08 74.1395C1074.08 75.304 1073.21 76.1773 1072.04 76.1773C1070.87 76.1773 1070 75.304 1070 74.1395C1070 72.9749 1070.87 72.1016 1072.04 72.1016C1073.21 72.1016 1074.08 72.9749 1074.08 74.1395Z" fill="white"/>
<path d="M1091.47 74.1395C1091.47 75.304 1090.6 76.1773 1089.43 76.1773C1088.26 76.1773 1087.39 75.304 1087.39 74.1395C1087.39 72.9749 1088.26 72.1016 1089.43 72.1016C1090.5 72.1016 1091.47 72.9749 1091.47 74.1395Z" fill="white"/>
<path d="M1108.76 74.1395C1108.76 75.304 1107.89 76.1773 1106.72 76.1773C1105.56 76.1773 1104.68 75.304 1104.68 74.1395C1104.68 72.9749 1105.56 72.1016 1106.72 72.1016C1107.89 72.1016 1108.76 72.9749 1108.76 74.1395Z" fill="white"/>
<path d="M1124.11 76.1773C1125.24 76.1773 1126.15 75.265 1126.15 74.1395C1126.15 73.014 1125.24 72.1016 1124.11 72.1016C1122.98 72.1016 1122.07 73.014 1122.07 74.1395C1122.07 75.265 1122.98 76.1773 1124.11 76.1773Z" fill="white"/>
<path d="M1143.54 74.1395C1143.54 75.304 1142.67 76.1773 1141.5 76.1773C1140.33 76.1773 1139.46 75.304 1139.46 74.1395C1139.46 72.9749 1140.33 72.1016 1141.5 72.1016C1142.57 72.1016 1143.54 72.9749 1143.54 74.1395Z" fill="white"/>
<path d="M1160.93 74.1395C1160.93 75.304 1160.05 76.1773 1158.89 76.1773C1157.72 76.1773 1156.85 75.304 1156.85 74.1395C1156.85 72.9749 1157.72 72.1016 1158.89 72.1016C1160.05 72.1016 1160.93 72.9749 1160.93 74.1395Z" fill="white"/>
<path d="M1178.22 74.1395C1178.22 75.304 1177.35 76.1773 1176.18 76.1773C1175.02 76.1773 1174.14 75.304 1174.14 74.1395C1174.14 72.9749 1175.02 72.1016 1176.18 72.1016C1177.35 72.1016 1178.22 72.9749 1178.22 74.1395Z" fill="white"/>
<path d="M1193.57 76.1773C1194.7 76.1773 1195.61 75.265 1195.61 74.1395C1195.61 73.014 1194.7 72.1016 1193.57 72.1016C1192.44 72.1016 1191.53 73.014 1191.53 74.1395C1191.53 75.265 1192.44 76.1773 1193.57 76.1773Z" fill="white"/>
<path d="M1213 74.1395C1213 75.304 1212.13 76.1773 1210.96 76.1773C1209.79 76.1773 1208.92 75.304 1208.92 74.1395C1208.92 72.9749 1209.79 72.1016 1210.96 72.1016C1212.03 72.1016 1213 72.9749 1213 74.1395Z" fill="white"/>
<path d="M1074.08 88.6004C1074.08 89.7649 1073.21 90.6383 1072.04 90.6383C1070.87 90.6383 1070 89.7649 1070 88.6004C1070 87.4359 1070.87 86.5625 1072.04 86.5625C1073.21 86.5625 1074.08 87.4359 1074.08 88.6004Z" fill="white"/>
<path d="M1091.47 88.6004C1091.47 89.7649 1090.6 90.6383 1089.43 90.6383C1088.26 90.6383 1087.39 89.7649 1087.39 88.6004C1087.39 87.4359 1088.26 86.5625 1089.43 86.5625C1090.5 86.5625 1091.47 87.4359 1091.47 88.6004Z" fill="white"/>
<path d="M1108.76 88.6004C1108.76 89.7649 1107.89 90.6383 1106.72 90.6383C1105.56 90.6383 1104.68 89.7649 1104.68 88.6004C1104.68 87.4359 1105.56 86.5625 1106.72 86.5625C1107.89 86.5625 1108.76 87.4359 1108.76 88.6004Z" fill="white"/>
<path d="M1126.15 88.6004C1126.15 89.7649 1125.28 90.6383 1124.11 90.6383C1122.95 90.6383 1122.07 89.7649 1122.07 88.6004C1122.07 87.4359 1122.95 86.5625 1124.11 86.5625C1125.28 86.5625 1126.15 87.4359 1126.15 88.6004Z" fill="white"/>
<path d="M1143.54 88.6004C1143.54 89.7649 1142.67 90.6383 1141.5 90.6383C1140.33 90.6383 1139.46 89.7649 1139.46 88.6004C1139.46 87.4359 1140.33 86.5625 1141.5 86.5625C1142.57 86.5625 1143.54 87.4359 1143.54 88.6004Z" fill="white"/>
<path d="M1160.93 88.6004C1160.93 89.7649 1160.05 90.6383 1158.89 90.6383C1157.72 90.6383 1156.85 89.7649 1156.85 88.6004C1156.85 87.4359 1157.72 86.5625 1158.89 86.5625C1160.05 86.5625 1160.93 87.4359 1160.93 88.6004Z" fill="white"/>
<path d="M1178.22 88.6004C1178.22 89.7649 1177.35 90.6383 1176.18 90.6383C1175.02 90.6383 1174.14 89.7649 1174.14 88.6004C1174.14 87.4359 1175.02 86.5625 1176.18 86.5625C1177.35 86.5625 1178.22 87.4359 1178.22 88.6004Z" fill="white"/>
<path d="M1195.61 88.6004C1195.61 89.7649 1194.74 90.6383 1193.57 90.6383C1192.41 90.6383 1191.53 89.7649 1191.53 88.6004C1191.53 87.4359 1192.41 86.5625 1193.57 86.5625C1194.74 86.5625 1195.61 87.4359 1195.61 88.6004Z" fill="white"/>
<path d="M1213 88.6004C1213 89.7649 1212.13 90.6383 1210.96 90.6383C1209.79 90.6383 1208.92 89.7649 1208.92 88.6004C1208.92 87.4359 1209.79 86.5625 1210.96 86.5625C1212.03 86.5625 1213 87.4359 1213 88.6004Z" fill="white"/>
<path d="M1074.08 102.962C1074.08 104.126 1073.21 105 1072.04 105C1070.87 105 1070 104.126 1070 102.962C1070 101.797 1070.87 100.924 1072.04 100.924C1073.21 100.924 1074.08 101.894 1074.08 102.962Z" fill="white"/>
<path d="M1091.47 102.962C1091.47 104.126 1090.6 105 1089.43 105C1088.26 105 1087.39 104.126 1087.39 102.962C1087.39 101.797 1088.26 100.924 1089.43 100.924C1090.5 100.924 1091.47 101.894 1091.47 102.962Z" fill="white"/>
<path d="M1108.76 102.962C1108.76 104.126 1107.89 105 1106.72 105C1105.56 105 1104.68 104.126 1104.68 102.962C1104.68 101.797 1105.56 100.924 1106.72 100.924C1107.89 100.924 1108.76 101.894 1108.76 102.962Z" fill="white"/>
<path d="M1126.15 102.962C1126.15 104.126 1125.28 105 1124.11 105C1122.95 105 1122.07 104.126 1122.07 102.962C1122.07 101.797 1122.95 100.924 1124.11 100.924C1125.28 100.924 1126.15 101.894 1126.15 102.962Z" fill="white"/>
<path d="M1143.54 102.962C1143.54 104.126 1142.67 105 1141.5 105C1140.33 105 1139.46 104.126 1139.46 102.962C1139.46 101.797 1140.33 100.924 1141.5 100.924C1142.57 100.924 1143.54 101.894 1143.54 102.962Z" fill="white"/>
<path d="M1160.93 102.962C1160.93 104.126 1160.05 105 1158.89 105C1157.72 105 1156.85 104.126 1156.85 102.962C1156.85 101.797 1157.72 100.924 1158.89 100.924C1160.05 100.924 1160.93 101.894 1160.93 102.962Z" fill="white"/>
<path d="M1178.22 102.962C1178.22 104.126 1177.35 105 1176.18 105C1175.02 105 1174.14 104.126 1174.14 102.962C1174.14 101.797 1175.02 100.924 1176.18 100.924C1177.35 100.924 1178.22 101.894 1178.22 102.962Z" fill="white"/>
<path d="M1195.61 102.962C1195.61 104.126 1194.74 105 1193.57 105C1192.41 105 1191.53 104.126 1191.53 102.962C1191.53 101.797 1192.41 100.924 1193.57 100.924C1194.74 100.924 1195.61 101.894 1195.61 102.962Z" fill="white"/>
<path d="M1213 102.962C1213 104.126 1212.13 105 1210.96 105C1209.79 105 1208.92 104.126 1208.92 102.962C1208.92 101.797 1209.79 100.924 1210.96 100.924C1212.03 100.924 1213 101.894 1213 102.962Z" fill="white"/>
</g>
<defs>
<clipPath id="clip0_2503_457">
<rect width="143" height="105" fill="white" transform="translate(1070)"/>
</clipPath>
</defs>
</svg>
