<svg width="1734" height="588" viewBox="0 0 1734 588" fill="none" xmlns="http://www.w3.org/2000/svg">
<g opacity="0.6">
<path d="M1702.3 505.188L1702.3 493.447L1734 493.447L1734 524.668L1722.17 524.668L1722.17 505.188L1702.3 505.188Z" fill="white"/>
<path d="M1680.9 526.27L1680.9 514.618L1712.6 514.618L1712.6 545.75L1700.68 545.75L1700.68 526.27L1680.9 526.27Z" fill="white"/>
<path d="M1659.49 547.438L1659.49 535.697L1691.1 535.697L1691.1 566.918L1679.27 566.918L1679.27 547.438L1659.49 547.438Z" fill="white"/>
<path d="M1638 568.52L1638 556.779L1669.7 556.779L1669.7 588L1657.78 588L1657.78 568.52L1638 568.52Z" fill="white"/>
</g>
<g clip-path="url(#clip0_2602_457)">
<path d="M1052.08 30.2725C1052.08 31.4148 1051.21 32.2716 1050.04 32.2716C1048.87 32.2716 1048 31.4148 1048 30.2725C1048 29.1302 1048.87 28.2734 1050.04 28.2734C1051.21 28.2734 1052.08 29.2254 1052.08 30.2725Z" fill="white"/>
<path d="M1069.47 30.2725C1069.47 31.4148 1068.6 32.2716 1067.43 32.2716C1066.26 32.2716 1065.39 31.4148 1065.39 30.2725C1065.39 29.1302 1066.26 28.2734 1067.43 28.2734C1068.5 28.2734 1069.47 29.2254 1069.47 30.2725Z" fill="white"/>
<path d="M1086.76 30.2725C1086.76 31.4148 1085.89 32.2716 1084.72 32.2716C1083.56 32.2716 1082.68 31.4148 1082.68 30.2725C1082.68 29.1302 1083.56 28.2734 1084.72 28.2734C1085.89 28.2734 1086.76 29.2254 1086.76 30.2725Z" fill="white"/>
<path d="M1104.15 30.2725C1104.15 31.4148 1103.28 32.2716 1102.11 32.2716C1100.94 32.2716 1100.07 31.4148 1100.07 30.2725C1100.07 29.1302 1100.94 28.2734 1102.11 28.2734C1103.28 28.2734 1104.15 29.2254 1104.15 30.2725Z" fill="white"/>
<path d="M1121.54 30.2725C1121.54 31.4148 1120.67 32.2716 1119.5 32.2716C1118.33 32.2716 1117.46 31.4148 1117.46 30.2725C1117.46 29.1302 1118.33 28.2734 1119.5 28.2734C1120.57 28.2734 1121.54 29.2254 1121.54 30.2725Z" fill="white"/>
<path d="M1138.93 30.2725C1138.93 31.4148 1138.06 32.2716 1136.89 32.2716C1135.72 32.2716 1134.85 31.4148 1134.85 30.2725C1134.85 29.1302 1135.72 28.2734 1136.89 28.2734C1138.06 28.2734 1138.93 29.2254 1138.93 30.2725Z" fill="white"/>
<path d="M1156.22 30.2725C1156.22 31.4148 1155.35 32.2716 1154.18 32.2716C1153.02 32.2716 1152.14 31.4148 1152.14 30.2725C1152.14 29.1302 1153.02 28.2734 1154.18 28.2734C1155.35 28.2734 1156.22 29.2254 1156.22 30.2725Z" fill="white"/>
<path d="M1173.61 30.2725C1173.61 31.4148 1172.74 32.2716 1171.57 32.2716C1170.4 32.2716 1169.53 31.4148 1169.53 30.2725C1169.53 29.1302 1170.4 28.2734 1171.57 28.2734C1172.74 28.2734 1173.61 29.2254 1173.61 30.2725Z" fill="white"/>
<path d="M1191 30.2725C1191 31.4148 1190.13 32.2716 1188.96 32.2716C1187.79 32.2716 1186.92 31.4148 1186.92 30.2725C1186.92 29.1302 1187.79 28.2734 1188.96 28.2734C1190.03 28.2734 1191 29.2254 1191 30.2725Z" fill="white"/>
<path d="M1052.08 44.4561C1052.08 45.5984 1051.21 46.4552 1050.04 46.4552C1048.87 46.4552 1048 45.5984 1048 44.4561C1048 43.3138 1048.87 42.457 1050.04 42.457C1051.21 42.457 1052.08 43.3138 1052.08 44.4561Z" fill="white"/>
<path d="M1069.47 44.4561C1069.47 45.5984 1068.6 46.4552 1067.43 46.4552C1066.26 46.4552 1065.39 45.5984 1065.39 44.4561C1065.39 43.3138 1066.26 42.457 1067.43 42.457C1068.5 42.457 1069.47 43.3138 1069.47 44.4561Z" fill="white"/>
<path d="M1086.76 44.4561C1086.76 45.5984 1085.89 46.4552 1084.72 46.4552C1083.56 46.4552 1082.68 45.5984 1082.68 44.4561C1082.68 43.3138 1083.56 42.457 1084.72 42.457C1085.89 42.457 1086.76 43.3138 1086.76 44.4561Z" fill="white"/>
<path d="M1104.15 44.4561C1104.15 45.5984 1103.28 46.4552 1102.11 46.4552C1100.94 46.4552 1100.07 45.5984 1100.07 44.4561C1100.07 43.3138 1100.94 42.457 1102.11 42.457C1103.28 42.457 1104.15 43.3138 1104.15 44.4561Z" fill="white"/>
<path d="M1121.54 44.4561C1121.54 45.5984 1120.67 46.4552 1119.5 46.4552C1118.33 46.4552 1117.46 45.5984 1117.46 44.4561C1117.46 43.3138 1118.33 42.457 1119.5 42.457C1120.57 42.457 1121.54 43.3138 1121.54 44.4561Z" fill="white"/>
<path d="M1138.93 44.4561C1138.93 45.5984 1138.06 46.4552 1136.89 46.4552C1135.72 46.4552 1134.85 45.5984 1134.85 44.4561C1134.85 43.3138 1135.72 42.457 1136.89 42.457C1138.06 42.457 1138.93 43.3138 1138.93 44.4561Z" fill="white"/>
<path d="M1156.22 44.4561C1156.22 45.5984 1155.35 46.4552 1154.18 46.4552C1153.02 46.4552 1152.14 45.5984 1152.14 44.4561C1152.14 43.3138 1153.02 42.457 1154.18 42.457C1155.35 42.457 1156.22 43.3138 1156.22 44.4561Z" fill="white"/>
<path d="M1173.61 44.4561C1173.61 45.5984 1172.74 46.4552 1171.57 46.4552C1170.4 46.4552 1169.53 45.5984 1169.53 44.4561C1169.53 43.3138 1170.4 42.457 1171.57 42.457C1172.74 42.457 1173.61 43.3138 1173.61 44.4561Z" fill="white"/>
<path d="M1191 44.4561C1191 45.5984 1190.13 46.4552 1188.96 46.4552C1187.79 46.4552 1186.92 45.5984 1186.92 44.4561C1186.92 43.3138 1187.79 42.457 1188.96 42.457C1190.03 42.457 1191 43.3138 1191 44.4561Z" fill="white"/>
<path d="M1052.08 1.99908C1052.08 3.1414 1051.21 3.99815 1050.04 3.99815C1048.87 3.99815 1048 3.1414 1048 1.99908C1048 0.856747 1048.87 0 1050.04 0C1051.21 0 1052.08 0.856747 1052.08 1.99908Z" fill="white"/>
<path d="M1069.47 1.99908C1069.47 3.1414 1068.6 3.99815 1067.43 3.99815C1066.26 3.99815 1065.39 3.1414 1065.39 1.99908C1065.39 0.856747 1066.26 0 1067.43 0C1068.5 0 1069.47 0.856747 1069.47 1.99908Z" fill="white"/>
<path d="M1086.76 1.99908C1086.76 3.1414 1085.89 3.99815 1084.72 3.99815C1083.56 3.99815 1082.68 3.1414 1082.68 1.99908C1082.68 0.856747 1083.65 0 1084.72 0C1085.89 0 1086.76 0.856747 1086.76 1.99908Z" fill="white"/>
<path d="M1104.15 1.99908C1104.15 3.1414 1103.28 3.99815 1102.11 3.99815C1100.94 3.99815 1100.07 3.1414 1100.07 1.99908C1100.07 0.856747 1101.04 0 1102.11 0C1103.18 0 1104.15 0.856747 1104.15 1.99908Z" fill="white"/>
<path d="M1121.54 1.99908C1121.54 3.1414 1120.67 3.99815 1119.5 3.99815C1118.33 3.99815 1117.46 3.1414 1117.46 1.99908C1117.46 0.856747 1118.33 0 1119.5 0C1120.57 0 1121.54 0.856747 1121.54 1.99908Z" fill="white"/>
<path d="M1138.93 1.99908C1138.93 3.1414 1138.06 3.99815 1136.89 3.99815C1135.72 3.99815 1134.85 3.1414 1134.85 1.99908C1134.85 0.856747 1135.72 0 1136.89 0C1138.06 0 1138.93 0.856747 1138.93 1.99908Z" fill="white"/>
<path d="M1156.22 1.99908C1156.22 3.1414 1155.35 3.99815 1154.18 3.99815C1153.02 3.99815 1152.14 3.1414 1152.14 1.99908C1152.14 0.856747 1153.02 0 1154.18 0C1155.35 0 1156.22 0.856747 1156.22 1.99908Z" fill="white"/>
<path d="M1173.61 1.99908C1173.61 3.1414 1172.74 3.99815 1171.57 3.99815C1170.4 3.99815 1169.53 3.1414 1169.53 1.99908C1169.53 0.856747 1170.4 0 1171.57 0C1172.74 0 1173.61 0.856747 1173.61 1.99908Z" fill="white"/>
<path d="M1191 1.99908C1191 3.1414 1190.13 3.99815 1188.96 3.99815C1187.79 3.99815 1186.92 3.1414 1186.92 1.99908C1186.92 0.856747 1187.79 0 1188.96 0C1190.03 0 1191 0.856747 1191 1.99908Z" fill="white"/>
<path d="M1052.08 16.1827C1052.08 17.325 1051.21 18.1817 1050.04 18.1817C1048.87 18.1817 1048 17.2298 1048 16.1827C1048 15.0403 1048.87 14.1836 1050.04 14.1836C1051.21 14.1836 1052.08 15.0403 1052.08 16.1827Z" fill="white"/>
<path d="M1069.47 16.1827C1069.47 17.325 1068.6 18.1817 1067.43 18.1817C1066.26 18.1817 1065.39 17.325 1065.39 16.1827C1065.39 15.0403 1066.26 14.1836 1067.43 14.1836C1068.5 14.1836 1069.47 15.0403 1069.47 16.1827Z" fill="white"/>
<path d="M1086.76 16.1827C1086.76 17.325 1085.89 18.1817 1084.72 18.1817C1083.56 18.1817 1082.68 17.325 1082.68 16.1827C1082.68 15.0403 1083.56 14.1836 1084.72 14.1836C1085.89 14.1836 1086.76 15.0403 1086.76 16.1827Z" fill="white"/>
<path d="M1104.15 16.1827C1104.15 17.325 1103.28 18.1817 1102.11 18.1817C1100.94 18.1817 1100.07 17.325 1100.07 16.1827C1100.07 15.0403 1100.94 14.1836 1102.11 14.1836C1103.28 14.1836 1104.15 15.0403 1104.15 16.1827Z" fill="white"/>
<path d="M1121.54 16.1827C1121.54 17.325 1120.67 18.1817 1119.5 18.1817C1118.33 18.1817 1117.46 17.325 1117.46 16.1827C1117.46 15.0403 1118.33 14.1836 1119.5 14.1836C1120.57 14.1836 1121.54 15.0403 1121.54 16.1827Z" fill="white"/>
<path d="M1138.93 16.1827C1138.93 17.325 1138.06 18.1817 1136.89 18.1817C1135.72 18.1817 1134.85 17.325 1134.85 16.1827C1134.85 15.0403 1135.72 14.1836 1136.89 14.1836C1138.06 14.1836 1138.93 15.0403 1138.93 16.1827Z" fill="white"/>
<path d="M1156.22 16.1827C1156.22 17.325 1155.35 18.1817 1154.18 18.1817C1153.02 18.1817 1152.14 17.325 1152.14 16.1827C1152.14 15.0403 1153.02 14.1836 1154.18 14.1836C1155.35 14.1836 1156.22 15.0403 1156.22 16.1827Z" fill="white"/>
<path d="M1173.61 16.1827C1173.61 17.325 1172.74 18.1817 1171.57 18.1817C1170.4 18.1817 1169.53 17.325 1169.53 16.1827C1169.53 15.0403 1170.4 14.1836 1171.57 14.1836C1172.74 14.1836 1173.61 15.0403 1173.61 16.1827Z" fill="white"/>
<path d="M1191 16.1827C1191 17.325 1190.13 18.1817 1188.96 18.1817C1187.79 18.1817 1186.92 17.325 1186.92 16.1827C1186.92 15.0403 1187.79 14.1836 1188.96 14.1836C1190.03 14.1836 1191 15.0403 1191 16.1827Z" fill="white"/>
<path d="M1052.08 58.544C1052.08 59.6863 1051.21 60.5431 1050.04 60.5431C1048.87 60.5431 1048 59.6863 1048 58.544C1048 57.4017 1048.87 56.5449 1050.04 56.5449C1051.21 56.5449 1052.08 57.4969 1052.08 58.544Z" fill="white"/>
<path d="M1069.47 58.544C1069.47 59.6863 1068.6 60.5431 1067.43 60.5431C1066.26 60.5431 1065.39 59.6863 1065.39 58.544C1065.39 57.4017 1066.26 56.5449 1067.43 56.5449C1068.5 56.5449 1069.47 57.4969 1069.47 58.544Z" fill="white"/>
<path d="M1086.76 58.544C1086.76 59.6863 1085.89 60.5431 1084.72 60.5431C1083.56 60.5431 1082.68 59.6863 1082.68 58.544C1082.68 57.4017 1083.56 56.5449 1084.72 56.5449C1085.89 56.5449 1086.76 57.4969 1086.76 58.544Z" fill="white"/>
<path d="M1104.15 58.544C1104.15 59.6863 1103.28 60.5431 1102.11 60.5431C1100.94 60.5431 1100.07 59.6863 1100.07 58.544C1100.07 57.4017 1100.94 56.5449 1102.11 56.5449C1103.28 56.5449 1104.15 57.4969 1104.15 58.544Z" fill="white"/>
<path d="M1121.54 58.544C1121.54 59.6863 1120.67 60.5431 1119.5 60.5431C1118.33 60.5431 1117.46 59.6863 1117.46 58.544C1117.46 57.4017 1118.33 56.5449 1119.5 56.5449C1120.57 56.5449 1121.54 57.4969 1121.54 58.544Z" fill="white"/>
<path d="M1138.93 58.544C1138.93 59.6863 1138.06 60.5431 1136.89 60.5431C1135.72 60.5431 1134.85 59.6863 1134.85 58.544C1134.85 57.4017 1135.72 56.5449 1136.89 56.5449C1138.06 56.5449 1138.93 57.4969 1138.93 58.544Z" fill="white"/>
<path d="M1156.22 58.544C1156.22 59.6863 1155.35 60.5431 1154.18 60.5431C1153.02 60.5431 1152.14 59.6863 1152.14 58.544C1152.14 57.4017 1153.02 56.5449 1154.18 56.5449C1155.35 56.5449 1156.22 57.4969 1156.22 58.544Z" fill="white"/>
<path d="M1173.61 58.544C1173.61 59.6863 1172.74 60.5431 1171.57 60.5431C1170.4 60.5431 1169.53 59.6863 1169.53 58.544C1169.53 57.4017 1170.4 56.5449 1171.57 56.5449C1172.74 56.5449 1173.61 57.4969 1173.61 58.544Z" fill="white"/>
<path d="M1191 58.544C1191 59.6863 1190.13 60.5431 1188.96 60.5431C1187.79 60.5431 1186.92 59.6863 1186.92 58.544C1186.92 57.4017 1187.79 56.5449 1188.96 56.5449C1190.03 56.5449 1191 57.4969 1191 58.544Z" fill="white"/>
<path d="M1052.08 72.7276C1052.08 73.8699 1051.21 74.7267 1050.04 74.7267C1048.87 74.7267 1048 73.8699 1048 72.7276C1048 71.5853 1048.87 70.7285 1050.04 70.7285C1051.21 70.7285 1052.08 71.5853 1052.08 72.7276Z" fill="white"/>
<path d="M1069.47 72.7276C1069.47 73.8699 1068.6 74.7267 1067.43 74.7267C1066.26 74.7267 1065.39 73.8699 1065.39 72.7276C1065.39 71.5853 1066.26 70.7285 1067.43 70.7285C1068.5 70.7285 1069.47 71.5853 1069.47 72.7276Z" fill="white"/>
<path d="M1086.76 72.7276C1086.76 73.8699 1085.89 74.7267 1084.72 74.7267C1083.56 74.7267 1082.68 73.8699 1082.68 72.7276C1082.68 71.5853 1083.56 70.7285 1084.72 70.7285C1085.89 70.7285 1086.76 71.5853 1086.76 72.7276Z" fill="white"/>
<path d="M1102.11 74.7267C1103.24 74.7267 1104.15 73.8316 1104.15 72.7276C1104.15 71.6235 1103.24 70.7285 1102.11 70.7285C1100.98 70.7285 1100.07 71.6235 1100.07 72.7276C1100.07 73.8316 1100.98 74.7267 1102.11 74.7267Z" fill="white"/>
<path d="M1121.54 72.7276C1121.54 73.8699 1120.67 74.7267 1119.5 74.7267C1118.33 74.7267 1117.46 73.8699 1117.46 72.7276C1117.46 71.5853 1118.33 70.7285 1119.5 70.7285C1120.57 70.7285 1121.54 71.5853 1121.54 72.7276Z" fill="white"/>
<path d="M1138.93 72.7276C1138.93 73.8699 1138.06 74.7267 1136.89 74.7267C1135.72 74.7267 1134.85 73.8699 1134.85 72.7276C1134.85 71.5853 1135.72 70.7285 1136.89 70.7285C1138.06 70.7285 1138.93 71.5853 1138.93 72.7276Z" fill="white"/>
<path d="M1156.22 72.7276C1156.22 73.8699 1155.35 74.7267 1154.18 74.7267C1153.02 74.7267 1152.14 73.8699 1152.14 72.7276C1152.14 71.5853 1153.02 70.7285 1154.18 70.7285C1155.35 70.7285 1156.22 71.5853 1156.22 72.7276Z" fill="white"/>
<path d="M1171.57 74.7267C1172.7 74.7267 1173.61 73.8316 1173.61 72.7276C1173.61 71.6235 1172.7 70.7285 1171.57 70.7285C1170.44 70.7285 1169.53 71.6235 1169.53 72.7276C1169.53 73.8316 1170.44 74.7267 1171.57 74.7267Z" fill="white"/>
<path d="M1191 72.7276C1191 73.8699 1190.13 74.7267 1188.96 74.7267C1187.79 74.7267 1186.92 73.8699 1186.92 72.7276C1186.92 71.5853 1187.79 70.7285 1188.96 70.7285C1190.03 70.7285 1191 71.5853 1191 72.7276Z" fill="white"/>
<path d="M1052.08 86.9131C1052.08 88.0555 1051.21 88.9122 1050.04 88.9122C1048.87 88.9122 1048 88.0555 1048 86.9131C1048 85.7708 1048.87 84.9141 1050.04 84.9141C1051.21 84.9141 1052.08 85.7708 1052.08 86.9131Z" fill="white"/>
<path d="M1069.47 86.9131C1069.47 88.0555 1068.6 88.9122 1067.43 88.9122C1066.26 88.9122 1065.39 88.0555 1065.39 86.9131C1065.39 85.7708 1066.26 84.9141 1067.43 84.9141C1068.5 84.9141 1069.47 85.7708 1069.47 86.9131Z" fill="white"/>
<path d="M1086.76 86.9131C1086.76 88.0555 1085.89 88.9122 1084.72 88.9122C1083.56 88.9122 1082.68 88.0555 1082.68 86.9131C1082.68 85.7708 1083.56 84.9141 1084.72 84.9141C1085.89 84.9141 1086.76 85.7708 1086.76 86.9131Z" fill="white"/>
<path d="M1104.15 86.9131C1104.15 88.0555 1103.28 88.9122 1102.11 88.9122C1100.94 88.9122 1100.07 88.0555 1100.07 86.9131C1100.07 85.7708 1100.94 84.9141 1102.11 84.9141C1103.28 84.9141 1104.15 85.7708 1104.15 86.9131Z" fill="white"/>
<path d="M1121.54 86.9131C1121.54 88.0555 1120.67 88.9122 1119.5 88.9122C1118.33 88.9122 1117.46 88.0555 1117.46 86.9131C1117.46 85.7708 1118.33 84.9141 1119.5 84.9141C1120.57 84.9141 1121.54 85.7708 1121.54 86.9131Z" fill="white"/>
<path d="M1138.93 86.9131C1138.93 88.0555 1138.06 88.9122 1136.89 88.9122C1135.72 88.9122 1134.85 88.0555 1134.85 86.9131C1134.85 85.7708 1135.72 84.9141 1136.89 84.9141C1138.06 84.9141 1138.93 85.7708 1138.93 86.9131Z" fill="white"/>
<path d="M1156.22 86.9131C1156.22 88.0555 1155.35 88.9122 1154.18 88.9122C1153.02 88.9122 1152.14 88.0555 1152.14 86.9131C1152.14 85.7708 1153.02 84.9141 1154.18 84.9141C1155.35 84.9141 1156.22 85.7708 1156.22 86.9131Z" fill="white"/>
<path d="M1173.61 86.9131C1173.61 88.0555 1172.74 88.9122 1171.57 88.9122C1170.4 88.9122 1169.53 88.0555 1169.53 86.9131C1169.53 85.7708 1170.4 84.9141 1171.57 84.9141C1172.74 84.9141 1173.61 85.7708 1173.61 86.9131Z" fill="white"/>
<path d="M1191 86.9131C1191 88.0555 1190.13 88.9122 1188.96 88.9122C1187.79 88.9122 1186.92 88.0555 1186.92 86.9131C1186.92 85.7708 1187.79 84.9141 1188.96 84.9141C1190.03 84.9141 1191 85.7708 1191 86.9131Z" fill="white"/>
<path d="M1052.08 101.001C1052.08 102.143 1051.21 103 1050.04 103C1048.87 103 1048 102.143 1048 101.001C1048 99.8587 1048.87 99.002 1050.04 99.002C1051.21 99.002 1052.08 99.9539 1052.08 101.001Z" fill="white"/>
<path d="M1069.47 101.001C1069.47 102.143 1068.6 103 1067.43 103C1066.26 103 1065.39 102.143 1065.39 101.001C1065.39 99.8587 1066.26 99.002 1067.43 99.002C1068.5 99.002 1069.47 99.9539 1069.47 101.001Z" fill="white"/>
<path d="M1086.76 101.001C1086.76 102.143 1085.89 103 1084.72 103C1083.56 103 1082.68 102.143 1082.68 101.001C1082.68 99.8587 1083.56 99.002 1084.72 99.002C1085.89 99.002 1086.76 99.9539 1086.76 101.001Z" fill="white"/>
<path d="M1104.15 101.001C1104.15 102.143 1103.28 103 1102.11 103C1100.94 103 1100.07 102.143 1100.07 101.001C1100.07 99.8587 1100.94 99.002 1102.11 99.002C1103.28 99.002 1104.15 99.9539 1104.15 101.001Z" fill="white"/>
<path d="M1121.54 101.001C1121.54 102.143 1120.67 103 1119.5 103C1118.33 103 1117.46 102.143 1117.46 101.001C1117.46 99.8587 1118.33 99.002 1119.5 99.002C1120.57 99.002 1121.54 99.9539 1121.54 101.001Z" fill="white"/>
<path d="M1138.93 101.001C1138.93 102.143 1138.06 103 1136.89 103C1135.72 103 1134.85 102.143 1134.85 101.001C1134.85 99.8587 1135.72 99.002 1136.89 99.002C1138.06 99.002 1138.93 99.9539 1138.93 101.001Z" fill="white"/>
<path d="M1156.22 101.001C1156.22 102.143 1155.35 103 1154.18 103C1153.02 103 1152.14 102.143 1152.14 101.001C1152.14 99.8587 1153.02 99.002 1154.18 99.002C1155.35 99.002 1156.22 99.9539 1156.22 101.001Z" fill="white"/>
<path d="M1173.61 101.001C1173.61 102.143 1172.74 103 1171.57 103C1170.4 103 1169.53 102.143 1169.53 101.001C1169.53 99.8587 1170.4 99.002 1171.57 99.002C1172.74 99.002 1173.61 99.9539 1173.61 101.001Z" fill="white"/>
<path d="M1191 101.001C1191 102.143 1190.13 103 1188.96 103C1187.79 103 1186.92 102.143 1186.92 101.001C1186.92 99.8587 1187.79 99.002 1188.96 99.002C1190.03 99.002 1191 99.9539 1191 101.001Z" fill="white"/>
</g>
<path opacity="0.6" d="M41 80.9782C31.6376 90.3406 16.3842 90.3406 7.02181 80.9782C-2.3406 71.6158 -2.3406 56.3624 7.02181 47L41 80.9782Z" fill="white"/>
<defs>
<clipPath id="clip0_2602_457">
<rect width="143" height="103" fill="white" transform="translate(1048)"/>
</clipPath>
</defs>
</svg>
